<svg width="48" height="44" viewBox="0 0 48 44" fill="none" xmlns="http://www.w3.org/2000/svg">
<path d="M43.6364 6.996L18.7418 32.12L9.49091 22.792L12.5673 19.69L18.7418 25.916L40.56 3.916L43.6364 6.996ZM21.8182 39.6C12.1964 39.6 4.36364 31.702 4.36364 22C4.36364 12.298 12.1964 4.4 21.8182 4.4C25.2436 4.4 28.4509 5.412 31.1564 7.15L34.32 3.96C30.7636 1.474 26.4655 0 21.8182 0C9.77455 0 0 9.856 0 22C0 34.144 9.77455 44 21.8182 44C25.5927 44 29.1491 43.032 32.2473 41.316L28.9745 38.016C26.7927 39.028 24.3709 39.6 21.8182 39.6ZM37.0909 28.6H30.5455V33H37.0909V39.6H41.4545V33H48V28.6H41.4545V22H37.0909V28.6Z" fill="black"/>
</svg>
